<svg xmlns="http://www.w3.org/2000/svg" viewBox="0 0 532.77 532.77"><defs><style>.cls-1,.cls-2,.cls-3{fill-rule:evenodd;}.cls-2{fill:#fff;}.cls-3{fill:#7bbe46;}</style></defs><g id="レイヤー_2" data-name="レイヤー 2"><g id="Camada_1" data-name="Camada 1"><path class="cls-1" d="M45.93,0H486.84a46.07,46.07,0,0,1,45.93,45.93V486.84a46.07,46.07,0,0,1-45.93,45.93H45.93A46.07,46.07,0,0,1,0,486.84V45.93A46.07,46.07,0,0,1,45.93,0Z"/><path class="cls-2" d="M397.76,252.67H382.39V177.43h15.37v8.45c3.59-6.35,11.41-9.25,18.41-9.25h4.65V191.7h-4.74c-12.9,0-18.32,6.82-18.32,19.24v41.73ZM111.81,149.54h16.51v63c0,37.85,50.54,35.15,50.54-.1V149.53H194.5V252.64H178.86v-9.28c-8.06,7.51-17.35,11.13-26.39,11.44-21,.71-40.66-16.47-40.66-44.36v-60.9Zm111,103H207.49V149.58h15.32v37A40.79,40.79,0,0,1,251,176.3c24.72.85,37.83,18.8,38,37.29.24,20-14.38,40.67-39.39,41.49-9.53.31-19.17-3.3-26.88-11.62v9ZM248.39,190A25.64,25.64,0,1,0,274,215.63,25.64,25.64,0,0,0,248.39,190Zm123.73,30.39H311.45c4.22,14.05,14.46,21.3,25.25,21.13,7.58-.12,15.43-3.9,21.64-11.56l10.33,8c-10.79,19.33-42,20.63-58.33,7.87-11.76-9.21-14.9-20.64-14.72-31.71.4-24.57,21.07-38.72,40.84-38.5,19.16.21,37.46,13.93,35.66,44.73Zm-15.51-12.11c-1.84-22.46-39.2-27.36-45,0Z"/><path class="cls-3" d="M132.24,364.13V338.75h51.43V321.33H132.24V296h53V278.53H112.29v103H185.2V364.12h-53Zm286.28-34.46H399.19a11.19,11.19,0,0,0-4.07-6.55,22.24,22.24,0,0,0-11.7-4.59c-6.81-.66-14.61,2.82-14.83,7-.14,2.56,2.61,5.38,10.28,7.62,12.82,3.75,29.23,2.12,38.21,13.84,10.51,13.72-.51,35.33-30.8,36.26-18.1.56-37.1-7.37-39.61-26.65h19.14a18.49,18.49,0,0,0,7,8.1c6.64,4.1,26.3,4.93,27.54-4.55.18-1.38-.42-2.78-2.21-4-3.42-2.41-9.7-3.14-15.27-4.28-24.11-3.32-32.94-11.17-34.62-21.12a20,20,0,0,1,1.89-12.7,27.34,27.34,0,0,1,5.52-7.09c6.93-6.45,17.79-9.27,28.32-8.95,14.86.44,33.85,8.63,34.56,27.74Zm-77,34.17v17.44H320.31c-13.06,0-20.4-8.62-20.4-21V322.66H285.37v-17.2h14.54v-22h19.52v22h22.06v17.2H319.43v32.89c0,7.21,2.5,8.29,9.4,8.29Zm-84-52.12v-6.41h19.9v75.93h-19.9v-7.08c-8,6.3-17.39,9.43-26.35,9-20.17-1-39.47-17.86-39-40.93.47-23.35,21.5-39.2,42-38.93a37.3,37.3,0,0,1,23.34,8.44Zm-23.08,8.53a22.87,22.87,0,1,0,22.87,22.87A22.87,22.87,0,0,0,234.44,320.25Z"/></g></g></svg>